<svg width="48" height="48" viewBox="0 0 48 48" fill="none" xmlns="http://www.w3.org/2000/svg">
<path fill-rule="evenodd" clip-rule="evenodd" d="M24 48C37.2548 48 48 37.2548 48 24C48 10.7452 37.2548 0 24 0C10.7452 0 0 10.7452 0 24C0 37.2548 10.7452 48 24 48ZM9.6 23.9995C9.6 16.0593 16.0603 9.6 23.9995 9.6C31.9397 9.6 38.4 16.0593 38.4 23.9995C38.4 31.9407 31.9397 38.399 23.9995 38.399C16.0603 38.399 9.6 31.9397 9.6 23.9995Z" fill="black"/>
<path fill-rule="evenodd" clip-rule="evenodd" d="M19.2946 11.7263C17.7273 12.3301 16.3063 13.2225 15.0937 14.3415L15.0921 14.3458L15.0921 14.3458C15.0703 14.4022 15.0497 14.4557 15.0358 14.5072C14.986 14.7064 15.3844 14.557 15.3844 14.557L15.8296 14.7552L16.3754 14.557C16.3754 14.557 16.5248 14.2592 16.8704 14.0122C17.1195 13.8338 17.1651 13.7571 17.2255 13.6554C17.2494 13.6152 17.2756 13.5711 17.3176 13.5152C17.3911 13.4176 17.3918 13.4169 17.4518 13.3569C17.5131 13.2956 17.636 13.1727 17.961 12.822C18.6065 12.1268 18.9531 12.1278 18.9531 12.1278C18.9531 12.1278 19.1401 11.9245 19.2946 11.7263ZM21.0357 15.4982L20.8385 15.2014L21.0357 14.7552L21.5134 14.9463V14.061L21.9698 13.814L22.3489 14.3588L22.9323 15.0042L22.545 15.301L21.5124 15.4992V14.9738L21.0357 15.4982ZM27.9767 20.3069C27.9767 20.3069 27.5976 20.067 27.4818 20.1585C26.9857 20.5559 25.8443 20.3069 25.5994 20.2062C25.3503 20.1066 25.2019 19.9592 25.2019 19.8098C25.2019 19.6604 24.9783 18.9418 24.9783 18.9418C24.9783 18.9418 24.4945 19.0282 24.3461 19.0282C24.1977 19.0282 23.8074 18.8727 23.8074 18.8727C23.8074 18.8727 23.3135 18.9195 23.1153 19.0191C22.9191 19.1187 22.5227 19.2661 22.3743 19.3159C22.2259 19.3657 21.8305 19.4144 21.8305 19.4144C21.3843 19.2162 21.0377 19.7112 20.9371 19.9094C20.8982 19.9888 20.8433 20.0521 20.7912 20.1122C20.7125 20.2029 20.6403 20.2862 20.6403 20.4054C20.6403 20.6047 20.2927 20.9015 20.1443 21.0001C20.1156 21.0195 20.0717 21.0464 20.0186 21.079C19.7992 21.2135 19.4222 21.4448 19.3027 21.6445C19.1533 21.8925 19.0049 22.1903 18.9551 22.4383C18.9063 22.6863 18.9063 22.8845 18.9063 23.2311C18.9063 23.3549 18.8999 23.4599 18.894 23.5574L18.894 23.5574C18.8834 23.7327 18.8743 23.8837 18.9063 24.0757C18.9541 24.3715 19.4511 25.1155 19.6483 25.3645C19.8475 25.6125 20.0955 25.9093 20.3445 26.0577C20.5905 26.2071 20.9391 26.5039 20.9391 26.5039C20.9391 26.5039 21.1363 26.8007 21.5317 26.6523C21.6976 26.5901 21.863 26.5538 22.0247 26.5183C22.2513 26.4685 22.4707 26.4204 22.6741 26.3047C23.0217 26.1075 23.5665 25.8585 23.5665 26.1563C23.5665 26.4541 23.7637 26.6533 24.0615 26.5537C24.1088 26.5379 24.1611 26.5183 24.2154 26.4981L24.2155 26.498C24.5029 26.3906 24.8464 26.2622 24.8045 26.5537C24.7735 26.7746 24.8222 27.0349 24.8617 27.2467L24.8617 27.2468L24.8617 27.2468L24.8617 27.2468C24.8844 27.3682 24.9041 27.4738 24.9041 27.5468C24.9041 27.5865 24.9021 27.6263 24.9001 27.6658C24.8921 27.8215 24.8844 27.9722 25.0027 28.0905C25.0491 28.1369 25.1197 28.193 25.1951 28.2528C25.3611 28.3846 25.5496 28.5343 25.5496 28.6363C25.5496 28.7837 25.5973 29.2797 25.6969 29.479C25.7965 29.6782 25.8951 29.975 25.7955 30.1732C25.6969 30.3714 25.4967 30.9172 25.4967 30.9172C25.4967 30.9172 25.393 31.3624 25.4428 31.5108C25.4926 31.6612 25.5841 31.8584 25.8321 32.1064C25.9752 32.2488 26.0141 32.4085 26.05 32.5562C26.0764 32.6646 26.1013 32.7665 26.1645 32.8504C26.3139 33.0486 26.4643 33.6432 26.4643 33.6432L26.4867 34.1392V34.5844C26.4867 34.5844 27.5803 34.436 27.7785 34.3862C27.9767 34.3364 28.7523 33.9888 28.9495 33.7916C29.0383 33.7023 29.0795 33.623 29.1202 33.545C29.1702 33.4489 29.2193 33.3546 29.355 33.2458C29.604 33.0486 30.0553 32.7 30.0553 32.7L30.0065 31.957L30.6042 31.1652L31.0514 30.718C31.0514 30.718 31.4468 30.1732 31.398 29.975C31.3492 29.7768 31.2496 28.7847 31.2496 28.7847C31.2496 28.7847 31.4488 28.3385 31.5972 28.1403C31.6504 28.0684 31.6846 27.9902 31.7207 27.9079L31.7207 27.9079C31.7844 27.7622 31.8537 27.604 32.0434 27.4461C32.295 27.2375 32.4748 26.9926 32.6146 26.8021L32.6146 26.8021C32.6403 26.7671 32.6646 26.7339 32.6878 26.7031L32.7191 26.6614L32.7191 26.6613C32.8748 26.4536 33.1405 26.0987 33.2326 25.9601C33.3312 25.8107 33.4318 25.3655 33.4318 25.3655L32.5374 25.5139C32.3643 25.2247 32.0054 24.7337 31.7067 24.3252L31.7066 24.3251L31.7066 24.325L31.7063 24.3247C31.493 24.0328 31.3104 23.7831 31.2486 23.6793C31.1002 23.4313 30.9518 22.9353 30.902 22.7371C30.8706 22.6129 30.7605 22.3498 30.6707 22.1351L30.6706 22.1349L30.6706 22.1349C30.6179 22.0089 30.5721 21.8996 30.5534 21.8447C30.5177 21.7364 30.3241 21.4695 30.1833 21.2755C30.1312 21.2036 30.0863 21.1418 30.0594 21.1017C30.0012 21.0145 29.859 20.9443 29.711 20.8712C29.6054 20.8191 29.4969 20.7655 29.414 20.7033C29.2158 20.5549 27.9767 20.3069 27.9767 20.3069ZM11.1826 26.9227C11.2466 26.9389 11.3381 26.9857 11.4672 27.1005C11.6542 27.2632 11.765 27.3465 12.013 27.4471C12.1414 27.4994 12.2299 27.5641 12.3272 27.6351L12.3272 27.6351C12.4171 27.7008 12.5144 27.7718 12.6574 27.8435C12.7074 27.8686 12.7462 27.8867 12.7781 27.9016L12.7781 27.9016C12.8218 27.9219 12.8524 27.9362 12.8807 27.954C12.9471 27.9957 13.0014 28.0568 13.1825 28.2612L13.252 28.3396C13.581 28.7081 13.6035 28.7716 13.6575 28.9238C13.6687 28.9554 13.6812 28.9909 13.6982 29.0338C13.7968 29.2828 13.9462 29.5288 14.0458 29.6792C14.1119 29.7777 14.2648 29.8542 14.4036 29.9237C14.474 29.9589 14.5407 29.9923 14.5906 30.0258C14.739 30.1254 14.987 30.224 15.1354 30.224C15.2065 30.224 15.3448 30.325 15.497 30.4362C15.6646 30.5587 15.8491 30.6934 15.979 30.719C16.227 30.7698 16.227 31.2658 16.227 31.2658L15.979 31.959L15.7798 32.702L15.979 33.2966C15.979 33.2966 15.6802 33.5456 15.484 33.5456C15.4072 33.5456 15.3517 33.566 15.2984 33.5857C15.2247 33.6128 15.155 33.6384 15.0389 33.6066C13.1483 31.8411 11.7772 29.5318 11.1826 26.9227ZM33.1828 29.8764C33.1828 30.0248 33.133 30.4222 33.0832 30.6204C33.0624 30.6998 33.0343 30.8033 33.0049 30.9114L33.0048 30.9117L33.0047 30.9122C32.9608 31.0735 32.9142 31.245 32.885 31.3624C32.8352 31.5616 32.5872 31.958 32.4398 32.0576C32.3801 32.0977 32.3041 32.1698 32.225 32.2449L32.225 32.2449C32.1075 32.3565 31.9831 32.4746 31.895 32.5038C31.7466 32.5536 31.646 32.1562 31.6958 31.958C31.7466 31.7598 31.9936 31.215 31.9936 31.215C31.9936 31.215 32.0434 30.9182 32.0922 30.719C32.143 30.5218 32.7376 30.2738 32.7376 30.2738L33.135 29.5299C33.1349 29.5309 33.1364 29.5381 33.139 29.5502L33.139 29.5502L33.139 29.5502C33.1505 29.6048 33.1828 29.7577 33.1828 29.8764ZM13.501 16.2422C13.501 16.3035 13.4752 16.3504 13.4474 16.4007C13.3855 16.5131 13.3143 16.6422 13.501 16.9862C13.8466 17.6306 13.5498 17.9285 13.5498 17.9285C13.5498 17.9285 12.7062 18.5231 12.5578 18.6227C12.4094 18.7223 12.013 19.2671 12.26 19.1177C12.508 18.9693 12.8048 18.8209 12.5578 19.2173C12.4847 19.3344 12.3944 19.4729 12.3008 19.6164L12.3008 19.6164L12.3008 19.6164C12.0769 19.9597 11.8345 20.3315 11.765 20.5071C11.7291 20.5976 11.6408 20.7337 11.5428 20.8846C11.3713 21.1487 11.1704 21.458 11.1704 21.6475C11.1704 21.7777 11.1325 21.9647 11.0941 22.1548C11.0445 22.3996 10.994 22.6493 11.022 22.7889C11.0555 22.9617 10.9458 23.4709 10.8594 23.6803C10.9265 20.8933 11.8646 18.3249 13.4136 16.2239C13.4644 16.229 13.501 16.2422 13.501 16.2422ZM37.1283 24.5652C37.1411 24.3775 37.1539 24.1902 37.1539 23.9995C37.1539 19.3047 34.6739 15.1872 30.965 12.8596C30.9276 12.8804 30.8852 12.9063 30.84 12.9339C30.6355 13.0586 30.3736 13.2184 30.2596 13.1036C30.1112 12.9552 29.7626 12.7407 29.7626 12.7407C30.0614 12.5415 29.168 12.2111 29.168 12.2111L28.1282 12.2945H27.3852C27.3199 12.2945 27.2263 12.2741 27.1208 12.2512C26.985 12.2216 26.8296 12.1878 26.69 12.1878C26.5177 12.1878 26.1734 12.299 25.9141 12.3827C25.8032 12.4185 25.7078 12.4493 25.6482 12.4642C25.5703 12.4836 25.4529 12.5352 25.3272 12.5905C25.1359 12.6746 24.9255 12.7671 24.8066 12.7671C24.6094 12.7671 24.3106 13.1412 24.3106 13.1412C24.3106 13.1412 23.964 13.7754 24.2628 13.6758C24.5586 13.5762 24.956 13.5711 25.0037 13.7205C25.0282 13.7915 25.0635 13.885 25.0992 13.9797C25.1377 14.0816 25.1766 14.1848 25.203 14.2623C25.2518 14.4107 25.946 14.4584 25.946 14.4584C25.946 14.4584 26.0456 14.2104 26.194 14.0122C26.3424 13.814 26.4908 13.566 26.4908 13.566C26.4908 13.566 26.7388 14.062 26.7886 14.2104C26.8374 14.3598 26.689 14.805 26.689 14.805C26.689 14.805 26.1442 15.1516 25.9947 15.1516C25.8453 15.1516 25.0017 14.4076 25.0017 14.4076C24.7049 14.5072 24.4569 14.6566 24.4569 14.6566C24.1103 15.0042 23.7627 15.301 23.7627 15.301C23.7627 15.301 23.4629 15.4006 23.2657 15.549C23.1768 15.6156 23.0416 15.6587 22.9089 15.7009C22.7457 15.7529 22.5862 15.8037 22.5207 15.8956C22.2737 16.2422 22.6162 16.4902 22.6162 16.4902L22.3113 16.8866L22.0988 17.036L21.3741 17.1855L20.9401 17.2586C20.9889 17.407 20.8924 17.8787 20.8924 17.8787V18.7192C20.8924 18.7192 21.6079 18.9174 21.7573 18.9174C21.7791 18.9174 21.8056 18.9185 21.8355 18.9198C22.01 18.927 22.3029 18.939 22.4729 18.769C22.6691 18.5708 22.9923 18.1246 23.0909 17.9762C23.1895 17.8278 23.3236 17.6794 23.6224 17.5798C23.7953 17.5222 23.8814 17.4475 23.9529 17.3855C24.0038 17.3414 24.0472 17.3037 24.1093 17.283C24.2587 17.2332 24.8421 17.1336 24.8421 17.1336C24.8421 17.1336 25.1867 17.3826 25.3341 17.4812C25.3511 17.4929 25.3544 17.5108 25.3586 17.5334C25.3715 17.6039 25.3928 17.7201 25.8636 17.8339V18.2263L26.5233 18.1765L26.2245 17.7801L26.1736 17.7668L25.5994 17.1855L25.5567 16.7393C25.5567 16.7393 26.1675 17.0859 26.3657 17.1855C26.5639 17.2841 26.9868 17.5808 26.9868 17.5808L27.2805 18.274L27.6769 18.7578C27.5438 18.5922 27.2155 18.1246 27.7277 18.1246C27.7277 18.1246 28.1993 18.1744 28.3477 18.1246C28.4972 18.0758 28.6313 18.027 28.8285 17.9274C28.9252 17.8788 28.9089 17.7714 28.8898 17.6453C28.8697 17.513 28.8465 17.3602 28.9474 17.2332C29.1466 16.9852 29.4048 16.8856 29.5532 16.8368C29.7026 16.787 30.2017 16.539 30.2017 16.539L30.7505 16.6386C30.5035 16.8368 30.2078 17.1336 30.405 17.0848C30.6032 17.035 31.0514 17.283 31.2486 17.4314C31.4468 17.5798 31.2984 17.9274 31.2984 17.9274C31.2984 17.9274 30.7536 17.8776 30.407 17.8278C30.0594 17.779 29.5136 17.8776 29.5136 17.8776L29.0684 18.1246C29.0684 18.1246 28.7706 18.2242 28.8204 18.4712C28.8692 18.7192 29.0684 19.018 29.2666 19.265C29.311 19.3211 29.3529 19.3796 29.393 19.4354C29.5309 19.6276 29.6463 19.7884 29.7606 19.7112C29.911 19.6116 30.407 19.3148 30.407 19.3148C30.407 19.3148 30.3064 19.6614 30.3572 19.9094C30.407 20.1564 30.407 20.504 30.407 20.504C30.407 20.504 29.911 20.504 30.0594 20.6047C30.1709 20.6778 30.3192 20.911 30.4221 21.0729C30.4552 21.125 30.4836 21.1696 30.5046 21.1993C31.0006 21.8925 32.0414 23.4293 32.141 23.6275C32.1824 23.712 32.1982 23.815 32.2137 23.9166C32.2348 24.0543 32.2555 24.1894 32.3392 24.2719C32.636 24.5697 33.2306 24.2719 33.379 24.1733C33.4255 24.1429 33.5057 24.0976 33.5985 24.0453C33.8033 23.9297 34.0696 23.7794 34.1718 23.6773C34.2314 23.6184 34.2596 23.5906 34.2904 23.5661C34.3374 23.5289 34.3905 23.4995 34.5702 23.3805C34.867 23.1823 35.0652 23.0329 34.9168 22.8845C34.7684 22.7361 34.4716 22.1903 34.4716 22.1903C34.0234 22.2899 33.5782 22.0419 33.5782 21.8935C33.5782 21.7451 33.1818 21.1505 33.1818 21.1505C33.1818 21.1505 33.2306 21.0519 33.5782 21.2491C33.71 21.324 33.8343 21.4275 33.954 21.5271C34.1509 21.691 34.3356 21.8447 34.5214 21.8447C34.7962 21.8447 34.943 21.9292 35.2392 22.0999C35.2629 22.1136 35.2875 22.1278 35.3132 22.1425C35.505 22.2513 35.6364 22.3755 35.7488 22.4818C35.8402 22.5681 35.919 22.6426 36.0074 22.6873C36.2056 22.7869 36.5034 23.1833 36.5034 23.1833C36.5034 23.1833 36.8012 23.8775 36.85 24.0767C36.8719 24.1623 36.9393 24.322 37.0092 24.4876C37.0463 24.5757 37.0842 24.6654 37.1163 24.7465C37.12 24.6859 37.1242 24.6255 37.1283 24.5652Z" fill="black"/>
</svg>
